<svg width="46" height="51" viewBox="0 0 46 51" fill="none" xmlns="http://www.w3.org/2000/svg">
<path d="M37.3442 40.4482C40.2121 38.2178 42.4708 35.3155 43.9203 31.9981C48.8276 20.8128 43.5881 7.69634 32.2173 2.70099C20.8465 -2.29436 7.65091 2.72337 2.74357 13.9086C0.639192 18.6825 0.326789 24.0619 1.86206 29.0877L1.87322 29.1281C1.87856 29.139 1.88164 29.1517 1.88456 29.1615L1.83854 29.1413L8.45814 47.2675C8.70356 47.9394 9.08467 48.5563 9.57804 49.0802C10.0714 49.6041 10.6666 50.0241 11.3271 50.3143C11.9876 50.6044 12.6994 50.7586 13.4188 50.7675C14.1381 50.7763 14.8499 50.6396 15.5103 50.3656L33.3266 42.9744L33.2806 42.9542L33.3099 42.9401L33.3134 42.9387C33.4455 42.8746 33.5777 42.8104 33.7097 42.7434C34.9953 42.0968 36.213 41.328 37.3459 40.4475L37.3442 40.4482ZM19.9394 30.699C18.0122 29.8524 16.4944 28.2874 15.7198 26.3482C14.9452 24.4091 14.9772 22.2546 15.809 20.3589C16.6407 18.4632 18.2039 16.9814 20.1548 16.2396C22.1056 15.4977 24.2843 15.5566 26.2115 16.4033C28.1386 17.2499 29.6565 18.8149 30.4311 20.7541C31.2057 22.6932 31.1737 24.8477 30.3419 26.7434C29.5102 28.6391 27.947 30.1209 25.9961 30.8627C24.0453 31.6046 21.8666 31.5457 19.9394 30.699Z" fill="white"/>
</svg>
