<svg width="52" height="51" viewBox="0 0 52 51" fill="none" xmlns="http://www.w3.org/2000/svg">
<path d="M4.80492 21.4604L25.9435 29.74L42.4841 14.1828L21.3455 5.90316L4.80492 21.4604ZM47.1939 13.2731L51.7919 37.11C52.0358 38.3744 51.7735 39.6828 51.0626 40.7475C50.3518 41.8121 49.2507 42.5458 48.0016 42.787L10.3225 50.0647C9.07331 50.3059 7.77845 50.035 6.72271 49.3116C5.66698 48.5881 4.93686 47.4714 4.69297 46.207L0.0950247 22.3701C-0.240625 20.63 0.388133 18.9509 1.59307 17.8528L20.2604 0.277657L44.1234 9.63818C45.6502 10.2087 46.8583 11.533 47.1939 13.2731Z" fill="white"/>
</svg>
