<svg width="40" height="43" viewBox="0 0 40 43" fill="none" xmlns="http://www.w3.org/2000/svg">
<path d="M18.7282 14.9686L15.6818 18.771C16.4142 20.3209 17.3273 21.778 18.4018 23.1115C19.5088 24.4293 20.7738 25.6042 22.1679 26.6091L26.5578 24.4248C29.0171 23.2005 31.9781 23.5662 34.035 25.3491L37.1795 28.0741C38.4508 29.1665 39.2504 30.7131 39.4086 32.3863C39.5669 34.0595 39.0715 35.7279 38.0273 37.0379C34.3728 41.6789 27.9769 44.0867 22.3913 40.9785C17.4809 38.2385 13.1138 34.6115 9.50921 30.2797C5.90211 25.9714 3.15043 21.0075 1.40385 15.6579C-0.547903 9.63694 3.14311 3.96481 8.47196 1.36943C11.6491 -0.180955 15.4947 0.968071 17.2434 3.99114L19.306 7.55601C20.6615 9.90308 20.4377 12.8366 18.7282 14.9686Z" fill="white"/>
</svg>
